<svg width="55" height="43" viewBox="0 0 55 43" fill="none" xmlns="http://www.w3.org/2000/svg">
<path d="M46.4801 30.8195H42.1624C41.6628 30.8195 41.2574 30.4138 41.2574 29.9139C41.2574 29.414 41.6628 29.0084 42.1624 29.0084H46.4795C49.8441 29.0084 52.5812 26.2693 52.5812 22.903C52.5812 19.6822 50.0601 17.009 46.8415 16.8176L45.8877 16.7609L45.9963 15.8112C46.0566 15.2848 46.085 14.8139 46.085 14.3714C46.085 7.46614 40.4713 1.84921 33.5715 1.84921C29.2489 1.84921 25.2889 4.04732 22.9783 7.72936L22.5289 8.44536L21.7844 8.0457C20.3992 7.30253 18.8343 6.90952 17.2579 6.90952C12.1353 6.90952 7.93281 10.9242 7.69089 16.0497L7.65651 16.7723L6.94462 16.8985C4.02469 17.4171 1.90472 19.9424 1.90472 22.903C1.90472 26.2693 4.64186 29.0084 8.00581 29.0084H11.9242C12.4243 29.0084 12.8291 29.414 12.8291 29.9139C12.8291 30.4138 12.4243 30.8195 11.9242 30.8195H8.00581C3.64401 30.8195 0.0948486 27.2679 0.0948486 22.903C0.0948486 19.3013 2.51224 16.1964 5.93652 15.2691C6.5549 9.51211 11.4005 5.09718 17.2579 5.09718C18.8554 5.09718 20.4445 5.43707 21.899 6.08545C24.5897 2.28328 28.8948 0.0374756 33.5715 0.0374756C41.4698 0.0374756 47.8949 6.4676 47.8949 14.3708C47.8949 14.6129 47.887 14.8616 47.8725 15.1188C51.5948 15.7829 54.3911 19.0387 54.3911 22.903C54.3911 27.2679 50.8419 30.8195 46.4801 30.8195Z" fill="#5F3FC6"/>
<path d="M34.5212 27.4828V24.1038C34.5212 20.0879 31.2562 16.8206 27.2431 16.8206C23.2294 16.8206 19.9644 20.0879 19.9644 24.1038V27.4828C18.7602 27.9229 17.8939 29.0693 17.8939 30.4246V41.9954C17.8939 42.4952 18.2987 42.9009 18.7989 42.9009H35.6874C36.1869 42.9009 36.5923 42.4952 36.5923 41.9954V30.4246C36.5923 29.0699 35.7254 27.9229 34.5212 27.4828ZM27.2431 18.6318C30.2584 18.6318 32.7114 21.0864 32.7114 24.1038V27.2829H21.7743V24.1038C21.7743 21.0864 24.2273 18.6318 27.2431 18.6318ZM34.7825 41.0898H19.7038V30.4246C19.7038 29.6905 20.3005 29.0941 21.0335 29.0941H33.4528C34.1864 29.0941 34.7825 29.6905 34.7825 30.4246V41.0898Z" fill="#5F3FC6"/>
<path d="M27.2456 38.4927C28.1266 38.4927 28.8407 37.778 28.8407 36.8964C28.8407 36.0149 28.1266 35.3002 27.2456 35.3002C26.3647 35.3002 25.6505 36.0149 25.6505 36.8964C25.6505 37.778 26.3647 38.4927 27.2456 38.4927Z" fill="#5F3FC6"/>
<path d="M40.8003 15.2764C40.3008 15.2764 39.8954 14.8713 39.8954 14.3708C39.8954 10.8813 37.0587 8.0427 33.5723 8.0427C33.0728 8.0427 32.6674 7.63761 32.6674 7.13713C32.6674 6.63666 33.0728 6.23157 33.5723 6.23157C38.0572 6.23157 41.7053 9.88281 41.7053 14.3708C41.7053 14.8713 41.2999 15.2764 40.8003 15.2764Z" fill="#5F3FC6"/>
<path d="M13.2824 16.9118C13.2679 16.9118 13.2535 16.9118 13.239 16.9112C12.7395 16.8871 12.354 16.4633 12.3775 15.964C12.5012 13.3499 14.6447 11.3027 17.2575 11.3027C17.7576 11.3027 18.1625 11.7078 18.1625 12.2083C18.1625 12.7088 17.7576 13.1139 17.2575 13.1139C15.6123 13.1139 14.2634 14.4034 14.1856 16.0491C14.1632 16.5339 13.7626 16.9118 13.2824 16.9118Z" fill="#5F3FC6"/>
</svg>
