<svg width="32" height="43" viewBox="0 0 32 43" fill="none" xmlns="http://www.w3.org/2000/svg">
<path d="M28.1789 16.8798H26.3804V9.74939C26.3804 4.49565 22.1241 0.236389 16.874 0.236389H15.1703C9.92025 0.236389 5.66395 4.49565 5.66395 9.74939V16.8798H3.8655C2.17411 16.8798 0.802979 18.2519 0.802979 19.9444V39.6506C0.802979 41.3431 2.17411 42.7152 3.8655 42.7152H28.1793C29.8707 42.7152 31.2418 41.3431 31.2418 39.6506V19.9444C31.2418 18.2519 29.8707 16.8798 28.1789 16.8798ZM17.6956 29.8449V34.3643C17.6956 35.2889 16.9466 36.0389 16.0222 36.0389C15.0977 36.0389 14.3487 35.2894 14.3487 34.3643V29.8449C13.345 29.1865 12.7507 27.9555 13.0356 26.6141C13.2804 25.4634 14.2115 24.535 15.3618 24.2943C17.3391 23.8808 19.08 25.3794 19.08 27.2853C19.08 28.3567 18.5286 29.2984 17.6956 29.8449ZM9.43397 16.8798V11.0545C9.43397 7.16335 12.5861 4.00902 16.4745 4.00902C19.8634 4.00902 22.6104 6.75791 22.6104 10.1492V16.8798H9.43397Z" fill="#5F3FC6"/>
</svg>
