<svg width="489" height="66" viewBox="0 0 489 66" fill="none" xmlns="http://www.w3.org/2000/svg">
<path d="M85.3984 62.4099C85.3215 62.4116 85.2451 62.3979 85.1736 62.3694C85.1022 62.3409 85.0372 62.2984 84.9826 62.2442C84.9279 62.19 84.8848 62.1254 84.8557 62.0542C84.8266 61.983 84.8121 61.9067 84.8132 61.8297L85.0733 32.528L84.8132 4.73003C84.8118 4.65301 84.826 4.57649 84.8549 4.50511C84.8839 4.43373 84.927 4.36897 84.9817 4.31474C85.0364 4.26051 85.1016 4.21794 85.1732 4.1896C85.2448 4.16127 85.3214 4.14775 85.3984 4.14987H103.958C120.683 4.14987 133.416 14.2336 133.416 33.2877C133.416 53.1794 119.687 62.4255 104.119 62.4255H85.3907L85.3984 62.4099ZM92.7207 56.1661H104.787C115.02 56.1661 125.425 49.4228 125.425 33.2721C125.425 17.8707 115.939 10.3781 104.454 10.3781H92.7181C92.7181 10.4587 92.549 27.1063 92.549 32.3511C92.549 37.7728 92.7207 56.0854 92.7207 56.1661Z" fill="white"/>
<path d="M153.309 62.4203C153.232 62.4221 153.156 62.4083 153.084 62.3798C153.013 62.3514 152.948 62.3088 152.893 62.2546C152.839 62.2005 152.795 62.1358 152.766 62.0646C152.737 61.9934 152.723 61.9171 152.724 61.8401L152.984 32.3771L152.724 4.73003C152.722 4.65301 152.737 4.57649 152.766 4.50511C152.795 4.43373 152.838 4.36897 152.892 4.31474C152.947 4.26051 153.012 4.21794 153.084 4.1896C153.155 4.16127 153.232 4.14775 153.309 4.14987H188.846C188.923 4.14812 188.999 4.16189 189.071 4.19036C189.142 4.21882 189.207 4.26141 189.262 4.31556C189.316 4.36972 189.36 4.43433 189.389 4.50554C189.418 4.57676 189.432 4.65311 189.431 4.73003V9.82134C189.433 9.89837 189.418 9.97488 189.389 10.0463C189.361 10.1176 189.317 10.1824 189.263 10.2366C189.208 10.2909 189.143 10.3334 189.071 10.3618C189 10.3901 188.923 10.4036 188.846 10.4015H160.631L160.371 28.2146H186.835C186.912 28.2128 186.989 28.2266 187.06 28.2551C187.132 28.2835 187.197 28.3261 187.251 28.3803C187.306 28.4344 187.349 28.499 187.378 28.5703C187.407 28.6415 187.422 28.7178 187.421 28.7947V33.8704C187.422 33.9475 187.408 34.024 187.379 34.0954C187.35 34.1667 187.307 34.2315 187.252 34.2857C187.197 34.34 187.132 34.3825 187.061 34.4109C186.989 34.4392 186.912 34.4527 186.835 34.4506H160.382L160.642 56.1739H189.514C189.591 56.1721 189.668 56.1859 189.739 56.2144C189.811 56.2428 189.876 56.2854 189.93 56.3396C189.985 56.3937 190.028 56.4583 190.057 56.5295C190.086 56.6008 190.101 56.6771 190.1 56.754V61.8323C190.101 61.9094 190.087 61.9859 190.058 62.0573C190.029 62.1286 189.986 62.1934 189.931 62.2476C189.876 62.3019 189.811 62.3444 189.74 62.3728C189.668 62.4011 189.591 62.4146 189.514 62.4125H153.309V62.4203Z" fill="white"/>
<path d="M231.7 63.4089C216.806 63.4089 207.98 56.2545 207.483 42.9344C207.481 42.8575 207.495 42.781 207.524 42.7095C207.552 42.6381 207.595 42.5731 207.649 42.5184C207.703 42.4638 207.768 42.4206 207.839 42.3915C207.91 42.3624 207.986 42.348 208.063 42.349H214.891C215.05 42.3591 215.2 42.4224 215.318 42.5286C215.436 42.6349 215.515 42.7778 215.542 42.9344C216.192 51.759 220.453 57.1651 231.851 57.1651C240.505 57.1651 246.581 54.0016 246.581 46.3451C246.581 30.2803 208.63 42.016 208.63 19.7907C208.63 9.12413 217.035 3.14047 230.014 3.14047C243.348 3.14047 251.653 8.79893 252.821 20.8703C252.839 20.9429 252.84 21.0187 252.823 21.0915C252.806 21.1643 252.771 21.2319 252.723 21.2888C252.674 21.3456 252.612 21.3899 252.543 21.418C252.474 21.4462 252.399 21.4573 252.324 21.4505H245.434C245.357 21.4522 245.281 21.4385 245.209 21.41C245.138 21.3815 245.073 21.3389 245.018 21.2848C244.963 21.2306 244.92 21.166 244.891 21.0948C244.862 21.0236 244.848 20.9472 244.849 20.8703C244.198 13.2945 239.274 9.46754 229.866 9.46754C221.626 9.46754 216.207 12.462 216.207 19.0388C216.207 34.024 254.158 22.616 254.158 45.3409C254.171 57.342 244.94 63.4089 231.7 63.4089Z" fill="white"/>
<path d="M285.71 62.4099C285.633 62.4117 285.557 62.3979 285.485 62.3694C285.414 62.3409 285.349 62.2983 285.295 62.2441C285.241 62.1899 285.198 62.1252 285.169 62.054C285.14 61.9828 285.126 61.9065 285.127 61.8297L285.452 33.5322L285.192 10.3937H268.805C268.728 10.3955 268.652 10.3817 268.58 10.3532C268.509 10.3248 268.444 10.2822 268.389 10.228C268.335 10.1739 268.291 10.1092 268.262 10.038C268.233 9.96682 268.219 9.89047 268.22 9.81354V4.73784C268.218 4.66082 268.233 4.5843 268.262 4.51292C268.291 4.44154 268.334 4.37678 268.388 4.32255C268.443 4.26832 268.508 4.22575 268.58 4.19741C268.652 4.16908 268.728 4.15556 268.805 4.15769H309.419C309.496 4.15593 309.573 4.1697 309.644 4.19817C309.716 4.22663 309.781 4.26922 309.835 4.32337C309.89 4.37753 309.933 4.44214 309.962 4.51336C309.991 4.58457 310.006 4.66092 310.005 4.73784V9.81875C310.006 9.89577 309.992 9.97229 309.963 10.0437C309.934 10.115 309.891 10.1798 309.836 10.234C309.781 10.2883 309.716 10.3308 309.645 10.3592C309.573 10.3875 309.496 10.401 309.419 10.3989H293.108L292.848 33.5374L293.173 61.8349C293.174 61.912 293.16 61.9885 293.131 62.0599C293.102 62.1312 293.059 62.196 293.004 62.2502C292.949 62.3045 292.884 62.347 292.813 62.3754C292.741 62.4037 292.664 62.4172 292.587 62.4151H285.684L285.71 62.4099Z" fill="white"/>
<path d="M329.404 62.4099C329.327 62.4117 329.251 62.3979 329.18 62.3694C329.108 62.3409 329.043 62.2983 328.989 62.2441C328.935 62.1899 328.892 62.1252 328.863 62.054C328.834 61.9828 328.82 61.9065 328.821 61.8298L329.081 32.7778L328.821 4.72743C328.82 4.65063 328.834 4.57434 328.863 4.50314C328.892 4.43194 328.935 4.3673 328.989 4.31311C329.043 4.25891 329.108 4.21629 329.18 4.18779C329.251 4.15929 329.327 4.14551 329.404 4.14728H336.063C336.14 4.14549 336.216 4.15928 336.287 4.18784C336.358 4.21639 336.422 4.2591 336.476 4.31337C336.53 4.36764 336.573 4.43234 336.601 4.50352C336.629 4.5747 336.643 4.65089 336.64 4.72743L336.38 32.7778L336.64 61.8298C336.642 61.9062 336.628 61.9822 336.6 62.0532C336.572 62.1242 336.529 62.1888 336.475 62.243C336.421 62.2972 336.357 62.3399 336.286 62.3686C336.215 62.3973 336.139 62.4113 336.063 62.4099H329.404Z" fill="white"/>
<path d="M365.185 34.7056L365.266 61.8376C365.268 61.9141 365.255 61.9903 365.226 62.0615C365.198 62.1327 365.156 62.1974 365.102 62.2516C365.048 62.3059 364.983 62.3486 364.912 62.3772C364.841 62.4057 364.765 62.4195 364.689 62.4177H358.446C358.369 62.4195 358.293 62.4057 358.221 62.3772C358.15 62.3487 358.085 62.3061 358.031 62.2519C357.976 62.1977 357.934 62.1331 357.905 62.0619C357.876 61.9907 357.862 61.9144 357.863 61.8376L358.123 32.8715L357.954 4.73785C357.953 4.66083 357.967 4.58432 357.996 4.51294C358.025 4.44156 358.068 4.3768 358.123 4.32257C358.178 4.26834 358.243 4.22577 358.314 4.19743C358.386 4.16909 358.462 4.15558 358.539 4.1577H366.364C366.547 4.15274 366.727 4.19606 366.888 4.2833C367.049 4.37053 367.184 4.4986 367.279 4.65461L397.822 52.6852L397.741 47.7734L397.572 32.5411L397.492 4.74306C397.49 4.66639 397.504 4.59015 397.532 4.51896C397.561 4.44776 397.603 4.3831 397.658 4.32887C397.712 4.27463 397.776 4.23197 397.848 4.20344C397.919 4.17491 397.995 4.16112 398.072 4.1629H404.314C404.391 4.16115 404.468 4.17492 404.539 4.20338C404.611 4.23185 404.676 4.27444 404.73 4.32859C404.785 4.38275 404.828 4.44736 404.857 4.51857C404.886 4.58979 404.901 4.66614 404.9 4.74306L404.64 32.8767L404.809 61.8428C404.81 61.9194 404.797 61.9957 404.768 62.0669C404.74 62.1381 404.697 62.2027 404.643 62.257C404.589 62.3112 404.524 62.3539 404.453 62.3824C404.382 62.4109 404.305 62.4247 404.229 62.4229H395.988C395.805 62.4279 395.624 62.3846 395.464 62.2973C395.303 62.2101 395.168 62.082 395.073 61.926L364.863 14.7254L365.032 20.1341L365.185 34.7056Z" fill="white"/>
<path d="M449.229 61.8376C449.231 61.9143 449.217 61.9907 449.189 62.0621C449.16 62.1335 449.118 62.1983 449.064 62.2526C449.009 62.3069 448.944 62.3496 448.873 62.3779C448.802 62.4063 448.725 62.4199 448.649 62.4177H441.912C441.835 62.4199 441.758 62.4063 441.687 62.3779C441.615 62.3496 441.551 62.3069 441.497 62.2526C441.442 62.1983 441.4 62.1335 441.371 62.0621C441.343 61.9907 441.329 61.9143 441.332 61.8376L441.5 42.3621L422.278 4.65721C422.257 4.60307 422.25 4.54481 422.256 4.48721C422.262 4.42961 422.282 4.37431 422.314 4.32583C422.346 4.27736 422.388 4.23708 422.439 4.20831C422.489 4.17954 422.545 4.16309 422.603 4.16031H430.258C430.425 4.17501 430.587 4.22734 430.731 4.31339C430.875 4.39944 430.998 4.51698 431.091 4.65721L445.657 35.1244L460.291 4.65721C460.383 4.51658 460.506 4.39874 460.65 4.31264C460.794 4.22654 460.956 4.17445 461.124 4.16031H468.113C468.171 4.16253 468.228 4.17862 468.278 4.20724C468.329 4.23586 468.372 4.27617 468.404 4.32482C468.435 4.37346 468.455 4.42902 468.461 4.48684C468.467 4.54467 468.459 4.60309 468.438 4.65721L449.067 42.3621L449.229 61.8376Z" fill="white"/>
<path d="M62.079 37.8093L15.1543 65.8102V49.6803L22.6326 45.2082V52.5837L47.575 37.6454L41.3973 34.0032L48.5504 29.7287L62.079 37.8093Z" fill="#7173EF"/>
<path d="M48.5348 29.7444L0 58.7157V0.770508L21.9693 13.8747L15.1543 18.4899L7.4783 13.9163V45.5673L41.1371 25.47L48.5348 29.7444Z" fill="white"/>
<path d="M481.829 0.770431C480.898 0.750647 479.973 0.917835 479.108 1.26212C478.257 1.6021 477.493 2.12935 476.873 2.80483C476.198 3.49595 475.654 4.30443 475.269 5.19055C474.916 6.06004 474.727 6.98682 474.709 7.92481C474.74 9.78988 475.485 11.5721 476.79 12.9043C477.463 13.5651 478.241 14.1101 479.092 14.5172C479.952 14.8846 480.878 15.0757 481.813 15.0792C482.747 15.062 483.669 14.8714 484.534 14.5172C485.404 14.137 486.206 13.6157 486.906 12.9744C487.579 12.3504 488.104 11.5832 488.441 10.7293C488.806 9.86397 488.997 8.93455 489 7.99507C488.983 7.05708 488.793 6.13021 488.441 5.26073C488.105 4.3857 487.581 3.59525 486.906 2.94536C486.249 2.28298 485.466 1.75843 484.604 1.40257C483.732 0.987171 482.779 0.771264 481.813 0.770431M487.954 7.99507C487.975 8.79454 487.808 9.58764 487.465 10.3104C487.173 11.055 486.72 11.7257 486.139 12.2747C485.544 12.8295 484.86 13.2798 484.115 13.6067C483.36 13.9106 482.556 14.0771 481.743 14.0983C480.949 14.1037 480.163 13.9359 479.441 13.6067C478.684 13.2708 477.997 12.795 477.417 12.2044C476.834 11.6294 476.381 10.9356 476.09 10.17C475.762 9.44259 475.595 8.65262 475.601 7.85454C475.588 7.03312 475.755 6.21879 476.09 5.4689C476.407 4.69944 476.883 4.00595 477.487 3.43443C478.051 2.87376 478.713 2.42217 479.441 2.10243C480.2 1.82106 481.003 1.67834 481.813 1.681C482.631 1.66069 483.443 1.82892 484.185 2.17269C484.956 2.48303 485.648 2.96219 486.209 3.57495C486.753 4.15494 487.201 4.81803 487.535 5.53917C487.821 6.32599 487.963 7.15792 487.954 7.99507ZM478.952 3.7154V11.7803H480.486V8.34361H481.951L483.626 11.7803H485.301L483.48 8.06271C484.005 7.97844 484.478 7.69977 484.807 7.28219C484.978 7.09272 485.109 6.87114 485.193 6.63036C485.277 6.38958 485.312 6.13444 485.296 5.87993C485.305 5.55223 485.233 5.22742 485.087 4.93395C484.941 4.64047 484.725 4.3873 484.458 4.19669C483.688 3.7822 482.819 3.58777 481.946 3.63474H478.944L478.952 3.7154ZM481.743 4.69624C482.299 4.67208 482.852 4.79306 483.348 5.0474C483.517 5.15953 483.651 5.31591 483.738 5.49939C483.824 5.68288 483.858 5.8865 483.837 6.0881C483.852 6.28057 483.814 6.47354 483.728 6.64632C483.642 6.8191 483.51 6.96513 483.348 7.06886C482.87 7.29629 482.34 7.39323 481.813 7.34983H480.557V4.69878L481.743 4.69624Z" fill="white"/>
</svg>
