<svg width="32" height="41" viewBox="0 0 32 41" fill="none" xmlns="http://www.w3.org/2000/svg">
<path d="M29.38 5.94315C24.7329 5.09753 20.6818 3.35092 17.3385 0.752398C16.4319 0.0489864 15.1664 0.0485364 14.2611 0.752398C10.9173 3.35047 6.8662 5.09707 2.21963 5.94315C1.02021 6.16142 0.149536 7.20821 0.149536 8.43141V22.7373C0.149536 30.6264 5.84083 37.616 14.6492 40.5435C15.0202 40.6664 15.4097 40.728 15.8 40.728C16.1899 40.728 16.5798 40.6664 16.9518 40.5435C25.7592 37.6155 31.4501 30.6264 31.4501 22.7373V8.43141C31.4496 7.20821 30.5789 6.16142 29.38 5.94315ZM5.49768 20.8223C5.49768 21.3192 5.09473 21.7224 4.59823 21.7224C4.10173 21.7224 3.69878 21.3192 3.69878 20.8223V18.4731C3.69878 17.9763 4.10173 17.5731 4.59823 17.5731C5.09473 17.5731 5.49768 17.9763 5.49768 18.4731V20.8223ZM12.2544 8.93186C10.3062 9.91789 8.12454 10.6348 5.77022 11.0632C5.61236 11.092 5.49813 11.2316 5.49813 11.3945V15.2221C5.49813 15.7189 5.09518 16.1221 4.59868 16.1221C4.10218 16.1221 3.69923 15.7189 3.69923 15.2221V11.3945C3.69923 10.3607 4.43498 9.47641 5.44821 9.29189C7.63253 8.8945 9.64956 8.2325 11.4431 7.32522C11.8856 7.10065 12.4271 7.27841 12.6515 7.72215C12.8754 8.16589 12.6978 8.70729 12.2544 8.93186ZM19.3735 34.8901C18.5389 35.3131 17.6529 35.6817 16.7417 35.9851C16.6473 36.0161 16.552 36.0314 16.458 36.0314C16.0811 36.0314 15.7299 35.7924 15.6044 35.4149C15.4479 34.9428 15.7029 34.4333 16.1746 34.2767C17.0017 34.0022 17.8049 33.6678 18.5604 33.2848C23.2826 30.8938 26.1015 26.7719 26.1015 22.2584C26.1015 21.7616 26.5044 21.3583 27.0009 21.3583C27.4974 21.3583 27.9004 21.7616 27.9004 22.2584C27.9004 27.464 24.7127 32.1872 19.3735 34.8901ZM27.9004 18.3908C27.9004 18.8876 27.4974 19.2909 27.0009 19.2909C26.5044 19.2909 26.1015 18.8876 26.1015 18.3908V12.3994C26.1015 11.9026 26.5044 11.4993 27.0009 11.4993C27.4974 11.4993 27.9004 11.9026 27.9004 12.3994V18.3908Z" fill="#5F3FC6"/>
</svg>
